<svg width="180" height="182" viewBox="0 0 180 182" fill="none" xmlns="http://www.w3.org/2000/svg">
<g filter="url(#filter0_d)">
<path d="M138 78C138 94.0263 131.759 109.094 120.426 120.426C109.094 131.759 94.0263 138 78 138C71.9621 138 66.0606 137.113 60.4429 135.403C63.8524 133.234 67.3762 130.799 70.9724 128.135C73.2704 128.456 75.6151 128.625 78 128.625C105.914 128.625 128.625 105.914 128.625 78C128.625 75.6178 128.456 73.274 128.135 70.9779C130.813 67.3643 133.243 63.8432 135.404 60.4457C137.114 66.0624 138 71.963 138 78ZM93.6445 96.1421C79.4447 110.182 64.7404 122.006 52.0988 129.536C42.6487 135.166 35.0297 137.986 29.315 137.986C25.8754 137.986 23.126 136.965 21.0798 134.92C15.9318 129.771 17.2749 120.15 25.0679 106.311C20.4509 97.7049 18 88.0415 18 78C18 61.9737 24.2411 46.9059 35.5735 35.5735C46.9059 24.2411 61.9737 18 78 18C88.0415 18 97.7058 20.4509 106.312 25.0679C120.15 17.2767 129.771 15.9318 134.92 21.0798C139.528 25.6886 138.937 33.9045 133.161 45.4988C128.659 54.535 121.304 65.2101 111.813 76.4985C112.965 78.5365 113.625 80.8876 113.625 83.3906C113.625 91.1451 107.317 97.4531 99.5625 97.4531C97.4485 97.4531 95.4445 96.9816 93.6445 96.1421V96.1421ZM104.25 83.3906C104.25 80.8061 102.147 78.7031 99.5625 78.7031C96.978 78.7031 94.875 80.8061 94.875 83.3906C94.875 85.9752 96.978 88.0781 99.5625 88.0781C102.147 88.0781 104.25 85.9752 104.25 83.3906ZM115.247 30.9565C117.046 32.3866 118.777 33.9238 120.426 35.5735C122.076 37.2233 123.614 38.9546 125.045 40.7554C129.465 31.6826 128.74 28.1596 128.291 27.7092C127.803 27.2221 124.093 26.6572 115.247 30.9565V30.9565ZM27.375 78C27.375 95.46 36.262 110.88 49.7477 119.984C61.1662 112.816 74.2225 102.15 86.942 89.586C86.02 87.7156 85.5 85.6126 85.5 83.3906C85.5 75.6361 91.808 69.3281 99.5625 69.3281C101.395 69.3281 103.147 69.6843 104.754 70.3251C110.788 63.1318 115.985 56.096 119.982 49.7404C110.878 36.2584 95.4573 27.375 78 27.375C50.0856 27.375 27.375 50.0856 27.375 78V78ZM40.7554 125.043C38.9555 123.612 37.2233 122.076 35.5735 120.426C33.9238 118.777 32.3857 117.046 30.9556 115.247C26.6526 124.1 27.2239 127.806 27.7092 128.291C28.2054 128.786 31.9243 129.335 40.7554 125.043Z" fill="#F2F6FA"/>
<path d="M40.254 168.208C39.4047 168.208 38.4947 168.173 37.524 168.104C36.5533 168.052 35.7127 167.974 35.002 167.87V166.518C35.73 166.605 36.5533 166.683 37.472 166.752C38.3907 166.804 39.1707 166.83 39.812 166.83C40.644 166.83 41.3027 166.787 41.788 166.7C42.2907 166.613 42.7327 166.449 43.114 166.206C43.4607 165.963 43.686 165.599 43.79 165.114C43.9113 164.611 43.972 163.961 43.972 163.164C43.972 162.124 43.9287 161.405 43.842 161.006C43.7553 160.59 43.5387 160.295 43.192 160.122C42.8627 159.949 42.2647 159.81 41.398 159.706L37.524 159.212C36.6227 159.108 35.9553 158.874 35.522 158.51C35.0887 158.146 34.8113 157.678 34.69 157.106C34.586 156.534 34.534 155.754 34.534 154.766C34.534 153.501 34.7247 152.513 35.106 151.802C35.5047 151.091 36.1027 150.597 36.9 150.32C37.6973 150.043 38.7547 149.904 40.072 149.904C40.9213 149.904 41.7707 149.939 42.62 150.008C43.4867 150.077 44.18 150.164 44.7 150.268V151.594C43.296 151.386 41.8487 151.282 40.358 151.282C39.4393 151.282 38.7027 151.343 38.148 151.464C37.5933 151.568 37.16 151.759 36.848 152.036C36.536 152.296 36.328 152.643 36.224 153.076C36.12 153.492 36.068 154.055 36.068 154.766C36.068 155.598 36.1113 156.205 36.198 156.586C36.302 156.967 36.4927 157.245 36.77 157.418C37.0473 157.591 37.498 157.713 38.122 157.782L41.84 158.25C42.8627 158.389 43.6253 158.579 44.128 158.822C44.6307 159.047 44.9947 159.489 45.22 160.148C45.324 160.443 45.3933 160.807 45.428 161.24C45.4627 161.656 45.48 162.237 45.48 162.982C45.48 164.421 45.2893 165.521 44.908 166.284C44.544 167.029 43.9893 167.541 43.244 167.818C42.516 168.078 41.5193 168.208 40.254 168.208ZM57.363 166.024H57.233C56.9903 166.717 56.5657 167.255 55.959 167.636C55.3697 168.017 54.4597 168.208 53.229 168.208C52.0503 168.208 51.1663 168.043 50.577 167.714C50.005 167.367 49.615 166.839 49.407 166.128C49.2163 165.417 49.121 164.403 49.121 163.086V154.74H50.577V162.644C50.577 163.944 50.655 164.88 50.811 165.452C50.967 166.024 51.253 166.405 51.669 166.596C52.1023 166.787 52.7957 166.882 53.749 166.882C54.841 166.882 55.6383 166.674 56.141 166.258C56.6437 165.825 56.9557 165.261 57.077 164.568C57.1983 163.875 57.259 162.887 57.259 161.604V154.74H58.715V168H57.441L57.363 166.024ZM62.9087 154.74H64.1567L64.2607 156.716H64.3647C64.6594 155.849 65.1447 155.269 65.8207 154.974C66.4967 154.679 67.3374 154.532 68.3427 154.532C69.6081 154.532 70.5527 154.723 71.1767 155.104C71.8007 155.485 72.2341 156.153 72.4767 157.106C72.7194 158.042 72.8407 159.463 72.8407 161.37C72.8407 163.259 72.7194 164.681 72.4767 165.634C72.2514 166.587 71.8267 167.255 71.2027 167.636C70.5787 168.017 69.6341 168.208 68.3687 168.208C67.3287 168.208 66.4881 168.061 65.8467 167.766C65.2054 167.454 64.7461 166.951 64.4687 166.258H64.3647V173.096H62.9087V154.74ZM67.8487 166.882C68.9407 166.882 69.7207 166.761 70.1887 166.518C70.6567 166.258 70.9687 165.764 71.1247 165.036C71.2981 164.291 71.3847 163.069 71.3847 161.37C71.3847 159.671 71.2981 158.458 71.1247 157.73C70.9687 156.985 70.6567 156.491 70.1887 156.248C69.7207 155.988 68.9407 155.858 67.8487 155.858C66.9647 155.858 66.2627 156.005 65.7427 156.3C65.2227 156.595 64.8674 157.071 64.6767 157.73C64.5381 158.163 64.4514 158.64 64.4167 159.16C64.3821 159.68 64.3647 160.417 64.3647 161.37C64.3647 162.237 64.3734 162.939 64.3907 163.476C64.4254 163.996 64.4947 164.429 64.5987 164.776C64.8241 165.539 65.1881 166.085 65.6907 166.414C66.2107 166.726 66.9301 166.882 67.8487 166.882ZM85.7475 161.864H77.4795C77.4795 163.372 77.5575 164.464 77.7135 165.14C77.8868 165.799 78.2422 166.267 78.7795 166.544C79.3168 166.804 80.2008 166.934 81.4315 166.934C82.0208 166.934 82.6708 166.908 83.3815 166.856C84.1095 166.787 84.7508 166.7 85.3055 166.596V167.844C84.8548 167.948 84.2395 168.035 83.4595 168.104C82.6795 168.173 81.9168 168.208 81.1715 168.208C79.6288 168.208 78.5022 168.017 77.7915 167.636C77.0808 167.237 76.6042 166.579 76.3615 165.66C76.1362 164.741 76.0235 163.32 76.0235 161.396C76.0235 159.472 76.1188 158.059 76.3095 157.158C76.5002 156.257 76.9508 155.598 77.6615 155.182C78.3722 154.749 79.5335 154.532 81.1455 154.532C82.5842 154.532 83.6242 154.74 84.2655 155.156C84.9068 155.555 85.3142 156.205 85.4875 157.106C85.6608 157.99 85.7475 159.403 85.7475 161.344V161.864ZM81.0935 155.806C79.9668 155.806 79.1608 155.927 78.6755 156.17C78.1902 156.395 77.8695 156.837 77.7135 157.496C77.5575 158.137 77.4795 159.203 77.4795 160.694H84.3175V160.304C84.3175 158.935 84.2222 157.947 84.0315 157.34C83.8582 156.716 83.5548 156.309 83.1215 156.118C82.6882 155.91 82.0122 155.806 81.0935 155.806ZM89.4419 154.74H90.6899L90.7939 157.366H90.8979C91.1579 156.291 91.6173 155.555 92.2759 155.156C92.9519 154.74 93.8273 154.532 94.9019 154.532V156.014C93.8446 156.014 93.0213 156.222 92.4319 156.638C91.8599 157.037 91.4613 157.635 91.2359 158.432C91.0106 159.212 90.8979 160.243 90.8979 161.526V168H89.4419V154.74ZM105.781 160.096C105.781 158.796 105.703 157.86 105.547 157.288C105.391 156.716 105.096 156.335 104.663 156.144C104.247 155.953 103.554 155.858 102.583 155.858C101.491 155.858 100.694 156.075 100.191 156.508C99.7058 156.924 99.4024 157.479 99.2811 158.172C99.1598 158.848 99.0991 159.836 99.0991 161.136V168H97.6431V154.74H98.8911L98.9951 156.716H99.0991C99.3418 156.023 99.7578 155.485 100.347 155.104C100.954 154.723 101.872 154.532 103.103 154.532C104.282 154.532 105.166 154.705 105.755 155.052C106.344 155.381 106.734 155.901 106.925 156.612C107.133 157.323 107.237 158.337 107.237 159.654V168H105.781V160.096ZM115.929 168.208C114.334 168.208 113.19 168.035 112.497 167.688C111.803 167.324 111.361 166.7 111.171 165.816C110.98 164.915 110.885 163.441 110.885 161.396C110.885 159.333 110.98 157.86 111.171 156.976C111.361 156.075 111.803 155.442 112.497 155.078C113.19 154.714 114.334 154.532 115.929 154.532C117.541 154.532 118.685 154.714 119.361 155.078C120.054 155.442 120.496 156.075 120.687 156.976C120.895 157.86 120.999 159.333 120.999 161.396C120.999 163.441 120.895 164.915 120.687 165.816C120.496 166.7 120.054 167.324 119.361 167.688C118.685 168.035 117.541 168.208 115.929 168.208ZM115.929 166.934C117.142 166.934 117.991 166.804 118.477 166.544C118.962 166.284 119.257 165.816 119.361 165.14C119.482 164.447 119.543 163.199 119.543 161.396C119.543 159.593 119.482 158.345 119.361 157.652C119.257 156.959 118.962 156.482 118.477 156.222C117.991 155.945 117.142 155.806 115.929 155.806C114.715 155.806 113.866 155.945 113.381 156.222C112.913 156.482 112.618 156.959 112.497 157.652C112.393 158.328 112.341 159.576 112.341 161.396C112.341 163.199 112.393 164.447 112.497 165.14C112.618 165.816 112.913 166.284 113.381 166.544C113.866 166.804 114.715 166.934 115.929 166.934ZM127.524 168L123.026 154.74H124.56L128.304 166.128H128.46L132.204 154.74H133.712L129.214 168H127.524ZM139.512 168.208C138.542 168.208 137.762 168.104 137.172 167.896C136.583 167.671 136.141 167.281 135.846 166.726C135.569 166.171 135.43 165.391 135.43 164.386C135.43 163.381 135.534 162.609 135.742 162.072C135.968 161.517 136.34 161.119 136.86 160.876C137.38 160.633 138.117 160.512 139.07 160.512C139.556 160.512 141.081 160.555 143.646 160.642V159.602C143.646 158.406 143.551 157.557 143.36 157.054C143.187 156.534 142.849 156.196 142.346 156.04C141.861 155.884 141.046 155.806 139.902 155.806C139.4 155.806 138.776 155.841 138.03 155.91C137.285 155.962 136.687 156.031 136.236 156.118V154.87C137.363 154.645 138.741 154.532 140.37 154.532C141.705 154.532 142.702 154.679 143.36 154.974C144.036 155.251 144.496 155.737 144.738 156.43C144.981 157.123 145.102 158.155 145.102 159.524V168H143.854L143.75 166.024H143.62C143.326 166.908 142.814 167.497 142.086 167.792C141.358 168.069 140.5 168.208 139.512 168.208ZM139.85 166.934C140.7 166.934 141.393 166.847 141.93 166.674C142.485 166.501 142.884 166.145 143.126 165.608C143.317 165.175 143.447 164.733 143.516 164.282C143.603 163.814 143.646 163.251 143.646 162.592V161.682H139.434C138.706 161.682 138.169 161.751 137.822 161.89C137.476 162.011 137.233 162.254 137.094 162.618C136.956 162.982 136.886 163.545 136.886 164.308C136.886 165.036 136.964 165.582 137.12 165.946C137.276 166.31 137.562 166.57 137.978 166.726C138.394 166.865 139.018 166.934 139.85 166.934Z" fill="#F2F6FA"/>
</g>
<defs>
<filter id="filter0_d" x="14" y="18" width="151" height="163.096" filterUnits="userSpaceOnUse" color-interpolation-filters="sRGB">
<feFlood flood-opacity="0" result="BackgroundImageFix"/>
<feColorMatrix in="SourceAlpha" type="matrix" values="0 0 0 0 0 0 0 0 0 0 0 0 0 0 0 0 0 0 127 0"/>
<feOffset dy="4"/>
<feGaussianBlur stdDeviation="2"/>
<feColorMatrix type="matrix" values="0 0 0 0 0 0 0 0 0 0 0 0 0 0 0 0 0 0 0.25 0"/>
<feBlend mode="normal" in2="BackgroundImageFix" result="effect1_dropShadow"/>
<feBlend mode="normal" in="SourceGraphic" in2="effect1_dropShadow" result="shape"/>
</filter>
</defs>
</svg>
